<?xml version="1.0" encoding="utf-8"?>
<svg version="1.1" xmlns:xlink="http://www.w3.org/1999/xlink" width="10px" height="10px" xmlns="http://www.w3.org/2000/svg">
  <g transform="matrix(1 0 0 1 -194 -1287 )">
    <path d="M 199 1288  C 201.24 1288  203 1289.76  203 1292  C 203 1294.24  201.24 1296  199 1296  C 196.76 1296  195 1294.24  195 1292  C 195 1289.76  196.76 1288  199 1288  Z " fill-rule="nonzero" fill="#ffffff" stroke="none" />
    <path d="M 199 1288  C 201.24 1288  203 1289.76  203 1292  C 203 1294.24  201.24 1296  199 1296  C 196.76 1296  195 1294.24  195 1292  C 195 1289.76  196.76 1288  199 1288  Z " stroke-width="2" stroke="#0079fe" fill="none" />
  </g>
</svg>