<?xml version="1.0" encoding="utf-8"?>
<svg version="1.1" xmlns:xlink="http://www.w3.org/1999/xlink" width="194px" height="43px" xmlns="http://www.w3.org/2000/svg">
  <g transform="matrix(1 0 0 1 -1053 -332 )">
    <path d="M 1230.05269843355 332.5  C 1230.05269843355 332.5  1233.53939927844 332.8864127225  1233.53939927844 332.8864127225  C 1233.53939927844 332.8864127225  1246.46162064936 353.5  1246.46162064936 353.5  C 1246.46162064936 353.5  1233.53939927844 374.1135872775  1233.53939927844 374.1135872775  C 1233.53939927844 374.1135872775  1230.05269843355 374.5  1230.05269843355 374.5  C 1230.05269843355 374.5  1058 374.5  1058 374.5  C 1055.48 374.5  1053.5 372.52  1053.5 370  C 1053.5 370  1053.5 337  1053.5 337  C 1053.5 334.48  1055.48 332.5  1058 332.5  C 1058 332.5  1230.05269843355 332.5  1230.05269843355 332.5  Z " fill-rule="nonzero" fill="#ffffff" stroke="none" />
    <path d="M 1230.05269843355 332.5  C 1230.05269843355 332.5  1233.53939927844 332.8864127225  1233.53939927844 332.8864127225  C 1233.53939927844 332.8864127225  1246.46162064936 353.5  1246.46162064936 353.5  C 1246.46162064936 353.5  1233.53939927844 374.1135872775  1233.53939927844 374.1135872775  C 1233.53939927844 374.1135872775  1230.05269843355 374.5  1230.05269843355 374.5  C 1230.05269843355 374.5  1058 374.5  1058 374.5  C 1055.48 374.5  1053.5 372.52  1053.5 370  C 1053.5 370  1053.5 337  1053.5 337  C 1053.5 334.48  1055.48 332.5  1058 332.5  C 1058 332.5  1230.05269843355 332.5  1230.05269843355 332.5  Z " stroke-width="1" stroke="#e4e4e4" fill="none" />
  </g>
</svg>