<?xml version="1.0" encoding="utf-8"?>
<svg version="1.1" xmlns:xlink="http://www.w3.org/1999/xlink" width="194px" height="43px" xmlns="http://www.w3.org/2000/svg">
  <g transform="matrix(1 0 0 1 -519 -332 )">
    <path d="M 696.052698433553 332.5  C 696.052698433553 332.5  699.539399278436 332.8864127225  699.539399278436 332.8864127225  C 699.539399278436 332.8864127225  712.461620649359 353.5  712.461620649359 353.5  C 712.461620649359 353.5  699.539399278436 374.1135872775  699.539399278436 374.1135872775  C 699.539399278436 374.1135872775  696.052698433553 374.5  696.052698433553 374.5  C 696.052698433553 374.5  524 374.5  524 374.5  C 521.48 374.5  519.5 372.52  519.5 370  C 519.5 370  519.5 337  519.5 337  C 519.5 334.48  521.48 332.5  524 332.5  C 524 332.5  696.052698433553 332.5  696.052698433553 332.5  Z " fill-rule="nonzero" fill="#4bc1d0" stroke="none" />
    <path d="M 696.052698433553 332.5  C 696.052698433553 332.5  699.539399278436 332.8864127225  699.539399278436 332.8864127225  C 699.539399278436 332.8864127225  712.461620649359 353.5  712.461620649359 353.5  C 712.461620649359 353.5  699.539399278436 374.1135872775  699.539399278436 374.1135872775  C 699.539399278436 374.1135872775  696.052698433553 374.5  696.052698433553 374.5  C 696.052698433553 374.5  524 374.5  524 374.5  C 521.48 374.5  519.5 372.52  519.5 370  C 519.5 370  519.5 337  519.5 337  C 519.5 334.48  521.48 332.5  524 332.5  C 524 332.5  696.052698433553 332.5  696.052698433553 332.5  Z " stroke-width="1" stroke="#e4e4e4" fill="none" />
  </g>
</svg>