<?xml version="1.0" encoding="utf-8"?>
<svg version="1.1" xmlns:xlink="http://www.w3.org/1999/xlink" width="194px" height="43px" xmlns="http://www.w3.org/2000/svg">
  <g transform="matrix(1 0 0 1 -2435 -71 )">
    <path d="M 2612.05269843355 71.5  C 2612.05269843355 71.5  2615.53939927844 71.8864127224999  2615.53939927844 71.8864127224999  C 2615.53939927844 71.8864127224999  2628.46162064936 92.5  2628.46162064936 92.5  C 2628.46162064936 92.5  2615.53939927844 113.1135872775  2615.53939927844 113.1135872775  C 2615.53939927844 113.1135872775  2612.05269843355 113.5  2612.05269843355 113.5  C 2612.05269843355 113.5  2440 113.5  2440 113.5  C 2437.48 113.5  2435.5 111.52  2435.5 109  C 2435.5 109  2435.5 76  2435.5 76  C 2435.5 73.48  2437.48 71.5  2440 71.5  C 2440 71.5  2612.05269843355 71.5  2612.05269843355 71.5  Z " fill-rule="nonzero" fill="#ffffff" stroke="none" />
    <path d="M 2612.05269843355 71.5  C 2612.05269843355 71.5  2615.53939927844 71.8864127224999  2615.53939927844 71.8864127224999  C 2615.53939927844 71.8864127224999  2628.46162064936 92.5  2628.46162064936 92.5  C 2628.46162064936 92.5  2615.53939927844 113.1135872775  2615.53939927844 113.1135872775  C 2615.53939927844 113.1135872775  2612.05269843355 113.5  2612.05269843355 113.5  C 2612.05269843355 113.5  2440 113.5  2440 113.5  C 2437.48 113.5  2435.5 111.52  2435.5 109  C 2435.5 109  2435.5 76  2435.5 76  C 2435.5 73.48  2437.48 71.5  2440 71.5  C 2440 71.5  2612.05269843355 71.5  2612.05269843355 71.5  Z " stroke-width="1" stroke="#e4e4e4" fill="none" />
  </g>
</svg>