<?xml version="1.0" encoding="utf-8"?>
<svg version="1.1" xmlns:xlink="http://www.w3.org/1999/xlink" width="194px" height="43px" xmlns="http://www.w3.org/2000/svg">
  <g transform="matrix(1 0 0 1 -1901 -71 )">
    <path d="M 2078.05269843355 71.5  C 2078.05269843355 71.5  2081.53939927844 71.8864127224999  2081.53939927844 71.8864127224999  C 2081.53939927844 71.8864127224999  2094.46162064936 92.5  2094.46162064936 92.5  C 2094.46162064936 92.5  2081.53939927844 113.1135872775  2081.53939927844 113.1135872775  C 2081.53939927844 113.1135872775  2078.05269843355 113.5  2078.05269843355 113.5  C 2078.05269843355 113.5  1906 113.5  1906 113.5  C 1903.48 113.5  1901.5 111.52  1901.5 109  C 1901.5 109  1901.5 76  1901.5 76  C 1901.5 73.48  1903.48 71.5  1906 71.5  C 1906 71.5  2078.05269843355 71.5  2078.05269843355 71.5  Z " fill-rule="nonzero" fill="#4bc1d0" stroke="none" />
    <path d="M 2078.05269843355 71.5  C 2078.05269843355 71.5  2081.53939927844 71.8864127224999  2081.53939927844 71.8864127224999  C 2081.53939927844 71.8864127224999  2094.46162064936 92.5  2094.46162064936 92.5  C 2094.46162064936 92.5  2081.53939927844 113.1135872775  2081.53939927844 113.1135872775  C 2081.53939927844 113.1135872775  2078.05269843355 113.5  2078.05269843355 113.5  C 2078.05269843355 113.5  1906 113.5  1906 113.5  C 1903.48 113.5  1901.5 111.52  1901.5 109  C 1901.5 109  1901.5 76  1901.5 76  C 1901.5 73.48  1903.48 71.5  1906 71.5  C 1906 71.5  2078.05269843355 71.5  2078.05269843355 71.5  Z " stroke-width="1" stroke="#e4e4e4" fill="none" />
  </g>
</svg>