<?xml version="1.0" encoding="utf-8"?>
<svg version="1.1" xmlns:xlink="http://www.w3.org/1999/xlink" width="439px" height="50px" xmlns="http://www.w3.org/2000/svg">
  <g transform="matrix(1 0 0 1 -1953 -239 )">
    <path d="M 2372.70332246527 239.5  C 2372.70332246527 239.5  2375.76612567179 239.674419317  2375.76612567179 239.674419317  C 2375.76612567179 239.674419317  2391.47765474925 264  2391.47765474925 264  C 2391.47765474925 264  2375.76612567179 288.325580683  2375.76612567179 288.325580683  C 2375.76612567179 288.325580683  2372.70332246527 288.5  2372.70332246527 288.5  C 2372.70332246527 288.5  1958 288.5  1958 288.5  C 1955.48 288.5  1953.5 286.52  1953.5 284  C 1953.5 284  1953.5 244  1953.5 244  C 1953.5 241.48  1955.48 239.5  1958 239.5  C 1958 239.5  2372.70332246527 239.5  2372.70332246527 239.5  Z " fill-rule="nonzero" fill="#4bc1d0" stroke="none" />
    <path d="M 2372.70332246527 239.5  C 2372.70332246527 239.5  2375.76612567179 239.674419317  2375.76612567179 239.674419317  C 2375.76612567179 239.674419317  2391.47765474925 264  2391.47765474925 264  C 2391.47765474925 264  2375.76612567179 288.325580683  2375.76612567179 288.325580683  C 2375.76612567179 288.325580683  2372.70332246527 288.5  2372.70332246527 288.5  C 2372.70332246527 288.5  1958 288.5  1958 288.5  C 1955.48 288.5  1953.5 286.52  1953.5 284  C 1953.5 284  1953.5 244  1953.5 244  C 1953.5 241.48  1955.48 239.5  1958 239.5  C 1958 239.5  2372.70332246527 239.5  2372.70332246527 239.5  Z " stroke-width="1" stroke="#e4e4e4" fill="none" />
  </g>
</svg>