<?xml version="1.0" encoding="utf-8"?>
<svg version="1.1" xmlns:xlink="http://www.w3.org/1999/xlink" width="436px" height="50px" xmlns="http://www.w3.org/2000/svg">
  <g transform="matrix(1 0 0 1 -1545 -239 )">
    <path d="M 1961.69698809673 239.5  C 1961.69698809673 239.5  1964.76598985078 239.675974871219  1964.76598985078 239.675974871219  C 1964.76598985078 239.675974871219  1980.47750830434 264  1980.47750830434 264  C 1980.47750830434 264  1964.76598985078 288.324025128781  1964.76598985078 288.324025128781  C 1964.76598985078 288.324025128781  1961.69698809673 288.5  1961.69698809673 288.5  C 1961.69698809673 288.5  1550 288.5  1550 288.5  C 1547.48 288.5  1545.5 286.52  1545.5 284  C 1545.5 284  1545.5 244  1545.5 244  C 1545.5 241.48  1547.48 239.5  1550 239.5  C 1550 239.5  1961.69698809673 239.5  1961.69698809673 239.5  Z " fill-rule="nonzero" fill="#4bc1d0" stroke="none" />
    <path d="M 1961.69698809673 239.5  C 1961.69698809673 239.5  1964.76598985078 239.675974871219  1964.76598985078 239.675974871219  C 1964.76598985078 239.675974871219  1980.47750830434 264  1980.47750830434 264  C 1980.47750830434 264  1964.76598985078 288.324025128781  1964.76598985078 288.324025128781  C 1964.76598985078 288.324025128781  1961.69698809673 288.5  1961.69698809673 288.5  C 1961.69698809673 288.5  1550 288.5  1550 288.5  C 1547.48 288.5  1545.5 286.52  1545.5 284  C 1545.5 284  1545.5 244  1545.5 244  C 1545.5 241.48  1547.48 239.5  1550 239.5  C 1550 239.5  1961.69698809673 239.5  1961.69698809673 239.5  Z " stroke-width="1" stroke="#e4e4e4" fill="none" />
  </g>
</svg>