<?xml version="1.0" encoding="utf-8"?>
<svg version="1.1" xmlns:xlink="http://www.w3.org/1999/xlink" width="439px" height="50px" xmlns="http://www.w3.org/2000/svg">
  <g transform="matrix(1 0 0 1 -571 -327 )">
    <path d="M 990.703322465271 327.5  C 990.703322465271 327.5  993.766125671789 327.674419317  993.766125671789 327.674419317  C 993.766125671789 327.674419317  1009.47765474925 352  1009.47765474925 352  C 1009.47765474925 352  993.766125671789 376.325580683  993.766125671789 376.325580683  C 993.766125671789 376.325580683  990.703322465271 376.5  990.703322465271 376.5  C 990.703322465271 376.5  576 376.5  576 376.5  C 573.48 376.5  571.5 374.52  571.5 372  C 571.5 372  571.5 332  571.5 332  C 571.5 329.48  573.48 327.5  576 327.5  C 576 327.5  990.703322465271 327.5  990.703322465271 327.5  Z " fill-rule="nonzero" fill="#4bc1d0" stroke="none" />
    <path d="M 990.703322465271 327.5  C 990.703322465271 327.5  993.766125671789 327.674419317  993.766125671789 327.674419317  C 993.766125671789 327.674419317  1009.47765474925 352  1009.47765474925 352  C 1009.47765474925 352  993.766125671789 376.325580683  993.766125671789 376.325580683  C 993.766125671789 376.325580683  990.703322465271 376.5  990.703322465271 376.5  C 990.703322465271 376.5  576 376.5  576 376.5  C 573.48 376.5  571.5 374.52  571.5 372  C 571.5 372  571.5 332  571.5 332  C 571.5 329.48  573.48 327.5  576 327.5  C 576 327.5  990.703322465271 327.5  990.703322465271 327.5  Z " stroke-width="1" stroke="#e4e4e4" fill="none" />
  </g>
</svg>