<?xml version="1.0" encoding="utf-8"?>
<svg version="1.1" xmlns:xlink="http://www.w3.org/1999/xlink" width="436px" height="50px" xmlns="http://www.w3.org/2000/svg">
  <g transform="matrix(1 0 0 1 -163 -327 )">
    <path d="M 579.696988096731 327.5  C 579.696988096731 327.5  582.765989850785 327.675974871219  582.765989850785 327.675974871219  C 582.765989850785 327.675974871219  598.477508304339 352  598.477508304339 352  C 598.477508304339 352  582.765989850785 376.324025128781  582.765989850785 376.324025128781  C 582.765989850785 376.324025128781  579.696988096731 376.5  579.696988096731 376.5  C 579.696988096731 376.5  168 376.5  168 376.5  C 165.48 376.5  163.5 374.52  163.5 372  C 163.5 372  163.5 332  163.5 332  C 163.5 329.48  165.48 327.5  168 327.5  C 168 327.5  579.696988096731 327.5  579.696988096731 327.5  Z " fill-rule="nonzero" fill="#4bc1d0" stroke="none" />
    <path d="M 579.696988096731 327.5  C 579.696988096731 327.5  582.765989850785 327.675974871219  582.765989850785 327.675974871219  C 582.765989850785 327.675974871219  598.477508304339 352  598.477508304339 352  C 598.477508304339 352  582.765989850785 376.324025128781  582.765989850785 376.324025128781  C 582.765989850785 376.324025128781  579.696988096731 376.5  579.696988096731 376.5  C 579.696988096731 376.5  168 376.5  168 376.5  C 165.48 376.5  163.5 374.52  163.5 372  C 163.5 372  163.5 332  163.5 332  C 163.5 329.48  165.48 327.5  168 327.5  C 168 327.5  579.696988096731 327.5  579.696988096731 327.5  Z " stroke-width="1" stroke="#e4e4e4" fill="none" />
  </g>
</svg>